<?xml version="1.0" encoding="UTF-8" standalone="no"?>
<svg width="50px" height="50px" viewBox="0 0 50 50" version="1.1" xmlns="http://www.w3.org/2000/svg" xmlns:xlink="http://www.w3.org/1999/xlink">
    <!-- Generator: Sketch 39.1 (31720) - http://www.bohemiancoding.com/sketch -->
    <title>edit</title>
    <desc>Created with Sketch.</desc>
    <defs>
        <path d="M44.7437359,45.8575636 C44.5144041,45.9494509 44.2642262,46 44.0025078,46 L5.99749218,46 C4.89430771,46 4,45.1033397 4,44.0025078 L4,5.99749218 C4,4.89430771 4.89666034,4 5.99749218,4 L24.4837376,4 L16.0156008,12.1762687 C15.6984236,12.0621737 15.3564725,12 15,12 C13.3431458,12 12,13.3431458 12,15 C12,16.6568542 13.3431458,18 15,18 C16.6568542,18 18,16.6568542 18,15 C18,14.8208926 17.9843043,14.6454511 17.9542132,14.4749759 L28.8031141,4 L44.0025078,4 C45.1056923,4 46,4.89666034 46,5.99749218 L46,42.839296 L38.5430953,35.1162024 L37.9569703,34.5091546 C37.9852624,34.3436673 38,34.1735547 38,34 C38,32.3431458 36.6568542,31 35,31 C33.3431458,31 32,32.3431458 32,34 C32,35.6568542 33.3431458,37 35,37 C35.3580482,37 35.7014464,36.9372754 36.0198054,36.8222153 L36.3850699,37.2005185 L44.7437359,45.8575636 Z M32.0753968,15.6713119 C32.0260596,15.4554825 32,15.2307845 32,15 C32,13.3431458 33.3431458,12 35,12 C36.6568542,12 38,13.3431458 38,15 C38,16.6568542 36.6568542,18 35,18 C34.6933427,18 34.3974318,17.9539891 34.1187943,17.8684941 L17.9269919,33.3392255 C17.9747811,33.5518278 18,33.7729688 18,34 C18,35.6568542 16.6568542,37 15,37 C13.3431458,37 12,35.6568542 12,34 C12,32.3431458 13.3431458,31 15,31 C15.3103801,31 15.6097512,31.0471349 15.8913459,31.1346371 L32.0753968,15.6713119 Z" id="path-1"></path>
        <mask id="mask-2" maskContentUnits="userSpaceOnUse" maskUnits="objectBoundingBox" x="0" y="0" width="42" height="42" fill="white">
            <use xlink:href="#path-1"></use>
        </mask>
    </defs>
    <g id="Page-1" stroke="none" stroke-width="1" fill="none" fill-rule="evenodd">
        <g id="edit">
            <use id="Combined-Shape" stroke="#000000" mask="url(#mask-2)" stroke-width="2" xlink:href="#path-1"></use>
            <circle id="Oval-17" fill="#000000" cx="15" cy="15" r="1"></circle>
            <circle id="Oval-17" fill="#000000" cx="15" cy="34" r="1"></circle>
            <circle id="Oval-17" fill="#000000" cx="35" cy="34" r="1"></circle>
            <circle id="Oval-17" fill="#000000" cx="35" cy="15" r="1"></circle>
        </g>
    </g>
</svg>